<mxfile host="65bd71144e">
    <diagram id="M8qY6rrcgv2KumpuqAlT" name="Page-1">
        <mxGraphModel dx="1201" dy="252" grid="1" gridSize="10" guides="1" tooltips="1" connect="1" arrows="1" fold="1" page="1" pageScale="1" pageWidth="850" pageHeight="1100" math="0" shadow="0">
            <root>
                <mxCell id="0"/>
                <mxCell id="1" parent="0"/>
                <mxCell id="2" value="" style="rounded=0;whiteSpace=wrap;html=1;" vertex="1" parent="1">
                    <mxGeometry x="-310" width="500" height="430" as="geometry"/>
                </mxCell>
                <mxCell id="3" value="My weather forecaster" style="rounded=0;whiteSpace=wrap;html=1;" vertex="1" parent="1">
                    <mxGeometry x="-310" width="500" height="90" as="geometry"/>
                </mxCell>
                <mxCell id="4" value="Image" style="rounded=0;whiteSpace=wrap;html=1;" vertex="1" parent="1">
                    <mxGeometry x="-290" y="130" width="120" height="60" as="geometry"/>
                </mxCell>
                <mxCell id="5" value="The current weather is ___ C" style="text;html=1;align=center;verticalAlign=middle;resizable=0;points=[];autosize=1;strokeColor=none;fillColor=none;" vertex="1" parent="1">
                    <mxGeometry x="-290" y="220" width="170" height="20" as="geometry"/>
                </mxCell>
            </root>
        </mxGraphModel>
    </diagram>
</mxfile>